<svg xmlns="http://www.w3.org/2000/svg" width="492" height="136" viewBox="0 0 492 136" role="img" aria-label="Ping: «Yo vigilo la red. Tú duerme tranquilo.»">
<title>Ping: «Yo vigilo la red. Tú duerme tranquilo.»</title>
<style>
  svg { --c: #38d6ff; }
  .vuela { animation: flota 4.8s ease-in-out infinite; }
  .cuerpo { animation: balanceo 3.2s ease-in-out infinite; }
  .bate { animation: bate .18s ease-in-out infinite alternate; }
  .anillo1 { animation: gira 6s linear infinite; }
  .anillo2 { animation: gira 9s linear infinite reverse; }
  .mira { animation: gira 16s linear infinite; }
  .remolino { animation: gira 2.6s linear infinite; }
  .pix { animation: pix 1.75s linear infinite; }
  .borde { animation: late 2.4s ease-in-out infinite; }
  @keyframes flota { 0%, 100% { transform: translate(75.0px, 70px); } 25% { transform: translate(80.0px, 64px); }
    50% { transform: translate(73.0px, 74px); } 75% { transform: translate(69.0px, 67px); } }
  @keyframes balanceo { 0%, 100% { transform: rotate(-6deg); } 50% { transform: rotate(6deg); } }
  @keyframes bate { from { transform: scaleX(1); } to { transform: scaleX(.35); } }
  @keyframes gira { to { transform: rotate(360deg); } }
  @keyframes pix { 0% { opacity: .9; transform: translate(0, 0); } 100% { opacity: 0; transform: translate(-6px, 10px); } }
  @keyframes late { 50% { stroke-opacity: 1; } }
  @media (prefers-reduced-motion: reduce) { * { animation: none !important; } .vuela { transform: translate(75.0px, 70px); } }
</style>
<defs>
  <radialGradient id="halo"><stop offset="0" stop-color="#38d6ff" stop-opacity=".42"/><stop offset=".5" stop-color="#38d6ff" stop-opacity=".08"/><stop offset="1" stop-color="#38d6ff" stop-opacity="0"/></radialGradient>
  <radialGradient id="nucleo" cx=".36" cy=".32" r=".75"><stop offset="0" stop-color="#fff" stop-opacity=".95"/><stop offset=".35" stop-color="#38d6ff" stop-opacity=".9"/><stop offset="1" stop-color="#06111f"/></radialGradient>
  <clipPath id="esfera"><circle r="11"/></clipPath>
</defs>
<g class="burbuja"><polygon points="156,62 147,67 156,72" fill="#06111f" stroke="var(--c)" stroke-opacity=".6"/><polygon class="borde" points="163,50 484,50 484,77 477,84 156,84 156,57" fill="#06111f" fill-opacity=".92" stroke="var(--c)" stroke-opacity=".6"/><text x="170" y="72" fill="#f2f6ff" font-family="JetBrains Mono, ui-monospace, SFMono-Regular, Menlo, Consolas, monospace" font-size="13">Yo vigilo la red. Tú duerme tranquilo.</text></g>
<g class="vuela"><g transform="scale(1.3)">
  <circle r="50" fill="url(#halo)"/>
  <rect class="pix" x="-14" y="14" width="2.4" height="2.4" fill="var(--c)" style="animation-delay:-0.00s"/><rect class="pix" x="-23" y="17" width="2.4" height="2.4" fill="var(--c)" style="animation-delay:-0.25s"/><rect class="pix" x="-32" y="20" width="2.4" height="2.4" fill="var(--c)" style="animation-delay:-0.50s"/><rect class="pix" x="-41" y="14" width="2.4" height="2.4" fill="var(--c)" style="animation-delay:-0.75s"/><rect class="pix" x="-50" y="17" width="2.4" height="2.4" fill="var(--c)" style="animation-delay:-1.00s"/><rect class="pix" x="-59" y="20" width="2.4" height="2.4" fill="var(--c)" style="animation-delay:-1.25s"/><rect class="pix" x="-68" y="14" width="2.4" height="2.4" fill="var(--c)" style="animation-delay:-1.50s"/>
  <g class="cuerpo">
    <g style="mix-blend-mode:screen"><g transform="translate(0 -2) scale(1 1) rotate(-24.1)"><g class="bate" style="animation-delay:0s"><polygon points="6,0 46.0,-14.4 40.4,2.4 8,6.7" fill="var(--c)" fill-opacity=".14" stroke="var(--c)" stroke-opacity=".9" stroke-width="1"/><path d="M10 2L28.0 -6.7L37.2 -8.0" fill="none" stroke="#fff" stroke-opacity=".5" stroke-width=".7"/><rect x="36.0" y="-9.2" width="2.4" height="2.4" fill="var(--c)"/></g></g><g transform="translate(0 -2) scale(-1 1) rotate(-24.1)"><g class="bate" style="animation-delay:0s"><polygon points="6,0 46.0,-14.4 40.4,2.4 8,6.7" fill="var(--c)" fill-opacity=".14" stroke="var(--c)" stroke-opacity=".9" stroke-width="1"/><path d="M10 2L28.0 -6.7L37.2 -8.0" fill="none" stroke="#fff" stroke-opacity=".5" stroke-width=".7"/><rect x="36.0" y="-9.2" width="2.4" height="2.4" fill="var(--c)"/></g></g><g transform="translate(0 4) scale(1 1) rotate(18.3)"><g class="bate" style="animation-delay:-.05s"><polygon points="6,0 33.2,-9.8 29.4,1.6 8,4.6" fill="var(--c)" fill-opacity=".14" stroke="var(--c)" stroke-opacity=".9" stroke-width="1"/><path d="M10 2L21.0 -4.6L27.2 -5.4" fill="none" stroke="#fff" stroke-opacity=".5" stroke-width=".7"/><rect x="26.0" y="-6.6" width="2.4" height="2.4" fill="var(--c)"/></g></g><g transform="translate(0 4) scale(-1 1) rotate(18.3)"><g class="bate" style="animation-delay:-.05s"><polygon points="6,0 33.2,-9.8 29.4,1.6 8,4.6" fill="var(--c)" fill-opacity=".14" stroke="var(--c)" stroke-opacity=".9" stroke-width="1"/><path d="M10 2L21.0 -4.6L27.2 -5.4" fill="none" stroke="#fff" stroke-opacity=".5" stroke-width=".7"/><rect x="26.0" y="-6.6" width="2.4" height="2.4" fill="var(--c)"/></g></g></g>
    <circle r="11" fill="url(#nucleo)"/>
    <g clip-path="url(#esfera)" fill="none" stroke-width=".8"><g class="remolino"><ellipse rx="9.9" ry="3.3" transform="rotate(0)" stroke="var(--c)" stroke-opacity=".35"/><ellipse rx="8.6" ry="4.4" transform="rotate(45)" stroke="#fff" stroke-opacity=".35"/><ellipse rx="7.3" ry="5.5" transform="rotate(90)" stroke="var(--c)" stroke-opacity=".35"/><ellipse rx="5.9" ry="6.6" transform="rotate(135)" stroke="#fff" stroke-opacity=".35"/></g></g>
    <circle class="anillo1" r="19" fill="none" stroke="var(--c)" stroke-opacity=".8" stroke-width="1.1" stroke-dasharray="8 5"/>
    <circle class="anillo2" r="25" fill="none" stroke="var(--c)" stroke-opacity=".55" stroke-width=".7" stroke-dasharray="2 6"/>
    <g class="mira" stroke="var(--c)" stroke-opacity=".6" stroke-width="1"><line x1="20.5" y1="20.5" x2="23.3" y2="23.3"/><line x1="-20.5" y1="20.5" x2="-23.3" y2="23.3"/><line x1="-20.5" y1="-20.5" x2="-23.3" y2="-23.3"/><line x1="20.5" y1="-20.5" x2="23.3" y2="-23.3"/></g>
  </g>
</g></g>
</svg>
